<?xml version="1.0" encoding="utf-8"?>
<!-- Generator: Adobe Illustrator 24.0.3, SVG Export Plug-In . SVG Version: 6.00 Build 0)  -->
<svg version="1.1" id="Layer_1" xmlns="http://www.w3.org/2000/svg" xmlns:xlink="http://www.w3.org/1999/xlink" x="0px" y="0px"
	 viewBox="0 0 79.86 137.21" style="enable-background:new 0 0 79.86 137.21;" xml:space="preserve">
<style type="text/css">
	.st0{fill-rule:evenodd;clip-rule:evenodd;}
	.st1{fill-rule:evenodd;clip-rule:evenodd;fill:#FFFFFF;}
</style>
<path class="st0" d="M67.1,50.5C62.06,42.48,55,33,54.21,23.25c-0.5-6.12-0.14-12.96-4.25-18.01c-1.2-1.47-2.89-2.83-4.57-3.71
	C43.59,0.59,41.27,0,39.24,0c-1.92,0-3.83,0.3-5.67,0.85c-2.16,0.65-4.32,1.42-6.56,1.74c-2.6,0.36-4.71,0.24-7.25-0.33
	c-1.52-0.34-1.93-0.47-3.45-0.79c-0.83-0.18-3.12-0.83-3.83-0.12c-1.7,1.7,1.93,3.78,3,4.56c2.37,1.72,3.37,2.29,5.62,4.25
	c3.06,2.65,5.49,5.81,6.42,9.77c0.27,1.15,0.35,2.3,0.37,3.47C28.12,40.48-0.39,57.26,0,87.51c0.14,10.7,5.85,12.47,5.78,6.52
	c-0.09-7.05,2.41-14.65,5-21.18c0.6-1.51,2.52-1.96,2.09,0.65c-0.68,4.15-2.37,11.31-2.22,23.01c0.04,2.82,0.2,5.66,0.61,8.45
	c0.33,2.25,0.81,4.48,1.47,6.66c0.55,1.83,1.25,3.61,2.15,5.29c0.71,1.33,1.53,2.6,2.5,3.75c0.96,1.14,1.99,1.97,3.14,2.88
	c0.67,0.53,1.42,1,1.74,1.84c0.47,1.23-1.1,1.73-1.92,2.1c-0.91,0.41-1.71,0.86-2.57,1.28c-1.23,0.6-2.45,1.24-3.65,1.91
	c-0.74,0.42-1.57,0.67-2.28,1.15c-0.7,0.47-1.06,1.22,0.03,1.4c0.51,0.08,1.05-0.05,1.56-0.08c0.87-0.04,1.78-0.16,2.61,0.17
	c1.12,0.44,1.06,1.51,1.11,2.55c0.05,1.13,0.84,1.49,1.83,1.22c1.16-0.32,1.97-1.21,2.87-1.97c0.65-0.55,1.36-1.13,2.13-1.5
	c1.54-0.76,3.38-0.51,5.03-0.42c0.92,0.05,2.22,0.43,2.96-0.31c0.76-0.76,0.22-2.08-0.12-2.91c-0.33-0.8-0.71-1.57-1.1-2.35
	c-0.18-0.35-0.44-0.66-0.6-1.03c-0.65-1.49,4.55-2.62,5.3-2.82c2.51-0.68,5.15-1.27,7.75-1.49c2.47-0.21,5.19-0.22,7.52,0.74
	c0.99,0.41,1.81,1.13,2.47,1.96c0.38,0.47,1.24,1.86,0.47,2.43c-1.19,0.87-2.43,1.64-3.6,2.55c-0.74,0.58-1.45,1.18-2.07,1.88
	c-0.47,0.53-0.6,1.46,0.36,1.41c1.25-0.06,2.51-0.13,3.77-0.14c0.9,0,1.86,0.12,2.63,0.64c1.24,0.84,1.51,2.63,2.89,3.32
	c0.4,0.2,0.86,0.19,1.28,0.07c0.92-0.28,1.33-1.23,1.82-1.96c0.45-0.68,0.91-1.32,1.63-1.73c0.45-0.25,0.96-0.35,1.47-0.35
	c0.92,0,1.85,0.02,2.77,0.13c0.72,0.08,1.72,0.42,2.36-0.08c1.22-0.94-1.98-3.04-2.62-3.44c-1.47-0.93-3.55-1.88-4.01-3.75
	c-0.53-2.2,0.56-4.49,1.48-6.44c0.98-2.05,2.3-3.95,3.06-6.1c0.7-1.99,1.23-4.05,1.53-6.14c1.61-11.45-1.05-23.62-4.39-34.55
	c-0.4-1.31-0.92-2.6-1.29-3.92c-0.58-2.06,1.42-2.55,2.44-0.54c0.98,1.93,7.38,14.24,9.25,23.4c1.18,5.83,5.57,6.06,5.45-4.29
	C79.69,72.38,74.02,61.53,67.1,50.5L67.1,50.5z"/>
<path class="st1" d="M61.81,95.66c0.78,7.55,1.62,20.59-7.6,21.02c-2.45,0.12-5.48-1.59-10-1.28c-7.68,0.52-9.97,3.46-16.24,2.33
	c-3.59-0.64-6.24-2.66-7.75-6.15c-1.71-3.96-1.87-8.44-2.14-12.69c-0.3-4.75-0.3-9.53-0.01-14.28c0.21-3.43,0.57-6.86,1.03-10.27
	c0.75-5.66,1.95-11.26,3.24-16.82c1.14-4.91,2.32-9.82,4.43-14.42c1.55-3.36,3.86-6.59,7.27-8.3c3.72-1.87,8.95-2.01,12.62-0.13
	c8.29,4.26,8.08,14.15,8.35,22.21c0.2,6.2,0.98,12.56,2.09,18.66C58.34,82.33,61.1,88.78,61.81,95.66L61.81,95.66z"/>
<path class="st1" d="M48.39,12.64c1.7,1.99,1.6,10.2-1.18,13.05c-1.63,1.67-4.38,1.88-6.56,2.19c-2.41,0.34-4.75,0.88-7.12,1.46
	c-2.25,0.55-2.1-1.83,0.07-3.54c3.24-2.54,11.39-3.69,13.34-13.16C47.02,12.27,47.42,11.5,48.39,12.64L48.39,12.64z"/>
<path class="st1" d="M36.58,14.79c2.27,1.48,5.52,0.52,7.25-2.13c1.72-2.66,1.28-6.01-1-7.49c-2.28-1.48-5.52-0.52-7.25,2.13
	C33.85,9.95,34.3,13.31,36.58,14.79L36.58,14.79z"/>
<path class="st0" d="M38.72,9.62c0.85-1.25,2.35-1.71,3.35-1.03c1,0.68,1.11,2.24,0.26,3.49c-0.85,1.25-2.35,1.71-3.34,1.03
	C37.99,12.42,37.87,10.86,38.72,9.62L38.72,9.62z"/>
</svg>
